<svg width="110" height="36" viewBox="0 0 110 36" fill="none" xmlns="http://www.w3.org/2000/svg">
<g clip-path="url(#clip0_247_5930)">
<path d="M96.3404 0.0568419C96.3404 -0.0189473 96.264 -0.0189473 96.1876 0.0568419L92.1428 7.25682C92.1428 7.33261 92.1428 7.40839 92.1428 7.48419L101.759 24.6883C101.759 24.7641 101.835 24.7641 101.911 24.7641H109.925C110.001 24.7641 110.001 24.6883 110.001 24.6883L96.3404 0.0568419Z" fill="white"/>
<path d="M91.6094 23.0966C89.9304 21.6566 88.8617 19.5345 88.8617 17.1093C88.8617 15.8209 89.2436 14.684 89.7012 13.623C89.7012 13.623 89.7012 13.623 89.7776 13.623L90.6935 14.8357H90.7699L90.9983 14.3809V14.3051L90.3115 12.6377V12.5619L90.8463 11.6525C91.0747 11.2735 91.151 10.8946 91.0747 10.4398V10.2882L90.9983 10.2125C90.9226 10.2125 90.8463 10.2882 90.8463 10.2882C90.4643 10.5156 90.1588 10.8188 89.9304 11.122L89.3956 12.0314C89.3956 12.0314 89.3956 12.0314 89.32 12.0314L87.5646 12.4103C87.5646 12.4103 87.4882 12.4103 87.4882 12.4861L87.259 12.9409V13.0167L88.7853 13.0925C88.7853 13.0925 88.7853 13.0925 88.7853 13.1683L82.2983 24.764V24.8398H94.1272C94.1272 24.8398 94.2035 24.8398 94.2035 24.764V24.6882C94.2035 24.6882 94.2035 24.6882 94.2035 24.6124C93.364 24.3093 92.3725 23.7787 91.6094 23.0966Z" fill="white"/>
<path d="M94.3564 22.263C93.898 22.263 93.5168 22.6419 93.5168 23.0966C93.5168 23.5514 93.898 23.9304 94.3564 23.9304C94.8139 23.9304 95.1959 23.5514 95.1959 23.0966C95.1959 22.6419 94.8139 22.263 94.3564 22.263ZM94.3564 23.7788C93.9744 23.7788 93.6696 23.4756 93.6696 23.0966C93.6696 22.7177 93.9744 22.4146 94.3564 22.4146C94.7375 22.4146 95.0431 22.7177 95.0431 23.0966C95.1195 23.4756 94.8139 23.7788 94.3564 23.7788Z" fill="white"/>
<path d="M94.7375 22.8697C94.7375 22.7939 94.7375 22.7181 94.6611 22.7181C94.5847 22.6423 94.5091 22.6423 94.4327 22.6423H94.0508V23.476H94.2036V23.1728H94.4327L94.6611 23.476H94.8139L94.5847 23.1728C94.6611 23.0971 94.7375 23.0213 94.7375 22.8697ZM94.2036 23.0213V22.7181H94.4327C94.5847 22.7181 94.6611 22.7939 94.6611 22.8697C94.6611 22.9455 94.5847 23.0213 94.4327 23.0213H94.2036Z" fill="white"/>
<path d="M7.81413 12.4864C7.81413 12.4106 7.73781 12.4106 7.6615 12.4106H5.37203C5.29571 12.4106 5.2957 12.4106 5.21939 12.4864L0.0299373 24.6126C-0.0463782 24.6884 0.0299466 24.84 0.182578 24.84H2.54834C2.62465 24.84 2.62467 24.84 2.70098 24.7642L3.84571 22.1116C3.84571 22.0358 3.92204 22.0358 3.99835 22.0358H9.11151C9.18783 22.0358 9.18775 22.0358 9.26406 22.1116L10.4088 24.7642C10.4088 24.84 10.4851 24.84 10.5615 24.84H13.0036C13.0799 24.84 13.1562 24.7642 13.1562 24.6126L7.81413 12.4864ZM8.11938 19.8379H4.91413C4.83782 19.8379 4.76151 19.7621 4.76151 19.6106L6.36412 15.8211C6.44043 15.6695 6.59308 15.6695 6.59308 15.8211L8.19569 19.6106C8.34831 19.7621 8.272 19.8379 8.11938 19.8379Z" fill="white"/>
<path d="M23.9169 22.5663H17.888C17.8117 22.5663 17.7354 22.4905 17.7354 22.4147V12.5622C17.7354 12.4864 17.6591 12.4106 17.5828 12.4106H15.2933C15.2169 12.4106 15.1406 12.4864 15.1406 12.5622V24.6884C15.1406 24.7642 15.2169 24.84 15.2933 24.84H23.9169C23.9933 24.84 24.0696 24.7642 24.0696 24.6884V22.7179C24.0696 22.5663 23.9933 22.5663 23.9169 22.5663Z" fill="white"/>
<path d="M34.9826 22.5663H28.9537C28.8774 22.5663 28.8011 22.4905 28.8011 22.4147V12.5622C28.8011 12.4864 28.7248 12.4106 28.6485 12.4106H26.359C26.2827 12.4106 26.2063 12.4864 26.2063 12.5622V24.6884C26.2063 24.7642 26.2827 24.84 26.359 24.84H34.9826C35.0589 24.84 35.1352 24.7642 35.1352 24.6884V22.7179C35.1352 22.5663 35.0589 22.5663 34.9826 22.5663Z" fill="white"/>
<path d="M45.2089 12.4106H35.0589C34.9826 12.4106 34.9062 12.4864 34.9062 12.5622V14.5327C34.9062 14.6085 34.9826 14.6842 35.0589 14.6842H38.722C38.7983 14.6842 38.8747 14.76 38.8747 14.8358V24.6126C38.8747 24.6884 38.951 24.7642 39.0273 24.7642H41.3167C41.393 24.7642 41.4694 24.6884 41.4694 24.6126V14.8358C41.4694 14.76 41.5457 14.6842 41.6221 14.6842H45.2851C45.3614 14.6842 45.4378 14.6085 45.4378 14.5327V12.5622C45.2851 12.4864 45.2852 12.4106 45.2089 12.4106Z" fill="white"/>
<path d="M54.976 19.5348C55.8155 19.3074 56.426 18.8526 56.8839 18.2463C57.3418 17.64 57.5708 16.9579 57.5708 16.1243C57.5708 15.0632 57.1892 14.1537 56.426 13.4716C55.6629 12.7895 54.5944 12.4106 53.2971 12.4106H47.6498C47.5735 12.4106 47.4971 12.4864 47.4971 12.5622V24.6884C47.4971 24.7642 47.5735 24.84 47.6498 24.84H49.9392C50.0155 24.84 50.0918 24.7642 50.0918 24.6884V19.9895C50.0918 19.9137 50.1681 19.8379 50.2445 19.8379H52.1524C52.2287 19.8379 52.2287 19.8379 52.305 19.9137L55.8154 24.7642C55.8154 24.7642 55.8917 24.84 55.9681 24.84H58.5628C58.7155 24.84 58.7155 24.6884 58.7155 24.6126L54.976 19.5348ZM53.1444 17.6401H50.2445C50.1681 17.6401 50.0918 17.5642 50.0918 17.4884V14.76C50.0918 14.6842 50.1681 14.6085 50.2445 14.6085H53.1444C53.7549 14.6085 54.2129 14.76 54.5181 14.9874C54.8234 15.2905 54.976 15.5937 54.976 16.1243C54.976 16.579 54.8234 16.9579 54.5181 17.2611C54.1366 17.5642 53.6786 17.6401 53.1444 17.6401Z" fill="white"/>
<path d="M63.3725 12.4106H61.083C61.0067 12.4106 60.9304 12.4864 60.9304 12.5622V24.6884C60.9304 24.7642 61.0067 24.84 61.083 24.84H63.3725C63.4488 24.84 63.5251 24.7642 63.5251 24.6884V12.5622C63.5251 12.4864 63.4488 12.4106 63.3725 12.4106Z" fill="white"/>
<path d="M75.5062 13.4716C74.743 12.7895 73.6745 12.4106 72.3009 12.4106H66.9588C66.8825 12.4106 66.8062 12.4864 66.8062 12.5622V24.6884C66.8062 24.7642 66.8825 24.84 66.9588 24.84H69.2482C69.3245 24.84 69.4009 24.7642 69.4009 24.6884V20.0653C69.4009 19.9895 69.4772 19.9137 69.5535 19.9137H72.3009C73.6745 19.9137 74.6666 19.5347 75.5062 18.8526C76.2693 18.1706 76.6511 17.2611 76.6511 16.1243C76.7275 15.0632 76.2693 14.1537 75.5062 13.4716ZM73.5983 17.3368C73.2166 17.5642 72.7588 17.7158 72.1483 17.7158H69.5535C69.4772 17.7158 69.4009 17.6401 69.4009 17.5642V14.76C69.4009 14.6842 69.4772 14.6085 69.5535 14.6085H72.1483C72.7588 14.6085 73.2166 14.76 73.5983 14.9874C73.9798 15.2905 74.1324 15.6695 74.1324 16.1243C74.1324 16.7305 73.9798 17.1095 73.5983 17.3368Z" fill="white"/>
</g>
<defs>
<clipPath id="clip0_247_5930">
<rect width="110" height="36" fill="white"/>
</clipPath>
</defs>
</svg>
