<svg width="180" height="72" viewBox="0 0 180 72" fill="none" xmlns="http://www.w3.org/2000/svg">
<g clip-path="url(#clip0_162_3174)">
<path d="M157.648 0.0930141C157.648 -0.0310047 157.523 -0.0310047 157.398 0.0930141L150.779 11.8748C150.779 11.9988 150.779 12.1228 150.779 12.2469L166.514 40.3991C166.514 40.5231 166.639 40.5231 166.764 40.5231H179.877C180.002 40.5231 180.002 40.3991 180.002 40.3991L157.648 0.0930141Z" fill="#36454F"/>
<path d="M149.906 37.7945C147.159 35.4381 145.41 31.9656 145.41 27.9971C145.41 25.8887 146.035 24.0284 146.784 22.2922C146.784 22.2922 146.784 22.2922 146.909 22.2922L148.408 24.2765H148.533L148.906 23.5323V23.4083L147.783 20.6799V20.5559L148.658 19.0677C149.031 18.4476 149.156 17.8276 149.031 17.0833V16.8353L148.906 16.7113C148.783 16.7113 148.658 16.8353 148.658 16.8353C148.033 17.2074 147.533 17.7035 147.159 18.1996L146.284 19.6878C146.284 19.6878 146.284 19.6878 146.16 19.6878L143.288 20.3078C143.288 20.3078 143.163 20.3078 143.163 20.4318L142.788 21.176V21.3001L145.285 21.4241C145.285 21.4241 145.285 21.4241 145.285 21.5481L134.67 40.5229V40.647H154.026C154.026 40.647 154.151 40.647 154.151 40.5229V40.3989C154.151 40.3989 154.151 40.3989 154.151 40.2749C152.778 39.7789 151.155 38.9106 149.906 37.7945Z" fill="#36454F"/>
<path d="M154.401 36.4304C153.651 36.4304 153.028 37.0505 153.028 37.7946C153.028 38.5387 153.651 39.1588 154.401 39.1588C155.15 39.1588 155.775 38.5387 155.775 37.7946C155.775 37.0505 155.15 36.4304 154.401 36.4304ZM154.401 38.9108C153.776 38.9108 153.278 38.4146 153.278 37.7946C153.278 37.1745 153.776 36.6784 154.401 36.6784C155.025 36.6784 155.525 37.1745 155.525 37.7946C155.65 38.4146 155.15 38.9108 154.401 38.9108Z" fill="#36454F"/>
<path d="M155.025 37.4232C155.025 37.2992 155.025 37.1752 154.9 37.1752C154.775 37.0511 154.651 37.0511 154.526 37.0511H153.901V38.4153H154.151V37.9192H154.526L154.9 38.4153H155.15L154.775 37.9192C154.9 37.7952 155.025 37.6712 155.025 37.4232ZM154.151 37.6712V37.1752H154.526C154.775 37.1752 154.9 37.2992 154.9 37.4232C154.9 37.5472 154.775 37.6712 154.526 37.6712H154.151Z" fill="#36454F"/>
<path d="M12.7867 20.4322C12.7867 20.3082 12.6619 20.3082 12.537 20.3082H8.79059C8.66571 20.3082 8.66569 20.3082 8.54081 20.4322L0.0489883 40.2752C-0.0758917 40.3992 0.0490035 40.6472 0.298764 40.6472H4.17001C4.29489 40.6472 4.29491 40.6472 4.41979 40.5232L6.29299 36.1826C6.29299 36.0586 6.41789 36.0586 6.54276 36.0586H14.9097C15.0346 36.0586 15.0345 36.0586 15.1594 36.1826L17.0326 40.5232C17.0326 40.6472 17.1575 40.6472 17.2824 40.6472H21.2786C21.4035 40.6472 21.5284 40.5232 21.5284 40.2752L12.7867 20.4322ZM13.2862 32.4621H8.0413C7.91643 32.4621 7.79156 32.3381 7.79156 32.09L10.414 25.8891C10.5389 25.6409 10.7887 25.6409 10.7887 25.8891L13.4111 32.09C13.6609 32.3381 13.536 32.4621 13.2862 32.4621Z" fill="#36454F"/>
<path d="M39.1369 36.9267H29.2714C29.1465 36.9267 29.0216 36.8027 29.0216 36.6787V20.5563C29.0216 20.4322 28.8968 20.3082 28.7719 20.3082H25.0254C24.9005 20.3082 24.7756 20.4322 24.7756 20.5563V40.3992C24.7756 40.5232 24.9005 40.6472 25.0254 40.6472H39.1369C39.2618 40.6472 39.3866 40.5232 39.3866 40.3992V37.1747C39.3866 36.9267 39.2618 36.9267 39.1369 36.9267Z" fill="#36454F"/>
<path d="M57.2444 36.9267H47.3789C47.2541 36.9267 47.1292 36.8027 47.1292 36.6787V20.5563C47.1292 20.4322 47.0043 20.3082 46.8794 20.3082H43.1331C43.0082 20.3082 42.8832 20.4322 42.8832 20.5563V40.3992C42.8832 40.5232 43.0082 40.6472 43.1331 40.6472H57.2444C57.3693 40.6472 57.4942 40.5232 57.4942 40.3992V37.1747C57.4942 36.9267 57.3693 36.9267 57.2444 36.9267Z" fill="#36454F"/>
<path d="M73.9783 20.3082H57.3691C57.2443 20.3082 57.1194 20.4322 57.1194 20.5563V23.7807C57.1194 23.9048 57.2443 24.0288 57.3691 24.0288H63.3634C63.4883 24.0288 63.6131 24.1528 63.6131 24.2768V40.2752C63.6131 40.3992 63.738 40.5232 63.8629 40.5232H67.6093C67.7341 40.5232 67.859 40.3992 67.859 40.2752V24.2768C67.859 24.1528 67.9839 24.0288 68.1089 24.0288H74.103C74.2279 24.0288 74.3528 23.9048 74.3528 23.7807V20.5563C74.103 20.4322 74.1031 20.3082 73.9783 20.3082Z" fill="#36454F"/>
<path d="M89.9607 31.966C91.3344 31.5939 92.3334 30.8498 93.0827 29.8577C93.8319 28.8654 94.2067 27.7493 94.2067 26.3852C94.2067 24.6488 93.5823 23.1607 92.3334 22.0444C91.0847 20.9283 89.3363 20.3082 87.2133 20.3082H77.9723C77.8474 20.3082 77.7224 20.4322 77.7224 20.5563V40.3992C77.7224 40.5232 77.8474 40.6472 77.9723 40.6472H81.7187C81.8435 40.6472 81.9683 40.5232 81.9683 40.3992V32.7101C81.9683 32.5861 82.0932 32.4621 82.2182 32.4621H85.3402C85.465 32.4621 85.465 32.4621 85.5899 32.5861L91.3343 40.5232C91.3343 40.5232 91.4592 40.6472 91.5842 40.6472H95.83C96.0798 40.6472 96.0798 40.3992 96.0798 40.2752L89.9607 31.966ZM86.9635 28.8656H82.2182C82.0932 28.8656 81.9683 28.7414 81.9683 28.6174V24.1528C81.9683 24.0288 82.0932 23.9048 82.2182 23.9048H86.9635C87.9625 23.9048 88.7119 24.1528 89.2114 24.5248C89.7109 25.0209 89.9607 25.5169 89.9607 26.3852C89.9607 27.1292 89.7109 27.7493 89.2114 28.2454C88.587 28.7414 87.8377 28.8656 86.9635 28.8656Z" fill="#36454F"/>
<path d="M103.701 20.3082H99.9542C99.8293 20.3082 99.7045 20.4322 99.7045 20.5563V40.3992C99.7045 40.5232 99.8293 40.6472 99.9542 40.6472H103.701C103.825 40.6472 103.95 40.5232 103.95 40.3992V20.5563C103.95 20.4322 103.825 20.3082 103.701 20.3082Z" fill="#36454F"/>
<path d="M123.555 22.0444C122.307 20.9283 120.558 20.3082 118.31 20.3082H109.569C109.444 20.3082 109.319 20.4322 109.319 20.5563V40.3992C109.319 40.5232 109.444 40.6472 109.569 40.6472H113.315C113.44 40.6472 113.565 40.5232 113.565 40.3992V32.8341C113.565 32.7101 113.69 32.5861 113.815 32.5861H118.31C120.558 32.5861 122.182 31.9659 123.555 30.8498C124.804 29.7336 125.429 28.2454 125.429 26.3852C125.554 24.6488 124.804 23.1607 123.555 22.0444ZM120.433 28.3694C119.809 28.7414 119.06 28.9896 118.061 28.9896H113.815C113.69 28.9896 113.565 28.8656 113.565 28.7414V24.1528C113.565 24.0288 113.69 23.9048 113.815 23.9048H118.061C119.06 23.9048 119.809 24.1528 120.433 24.5248C121.058 25.0209 121.307 25.6409 121.307 26.3852C121.307 27.3773 121.058 27.9973 120.433 28.3694Z" fill="#36454F"/>
<path d="M31.5804 59.2493V57.8622H38.6751V59.2493H35.9368V67.3387H34.3326V59.2493H31.5804ZM45.4148 63.2322L47.4478 67.3387H45.6776L43.8382 63.4932H41.9851V67.3387H40.3808V57.8622H43.6308C44.7556 57.8622 45.6222 58.1047 46.2308 58.59C46.8393 59.0754 47.1436 59.7758 47.1436 60.6914C47.1436 61.9732 46.5673 62.8202 45.4148 63.2322ZM41.9851 59.2493V62.1197H43.5202C44.2301 62.1197 44.7418 62.0099 45.0552 61.7901C45.3779 61.5704 45.5393 61.2041 45.5393 60.6914C45.5393 60.1786 45.3779 59.8124 45.0552 59.5926C44.7418 59.3637 44.2301 59.2493 43.5202 59.2493H41.9851ZM50.7839 65.3747L50.1339 67.3387H48.4191L51.7382 57.8622H53.2594L56.5786 67.3387H54.8776L54.2276 65.3747H50.7839ZM53.7712 64.0013L52.4988 60.1695L51.2264 64.0013H53.7712ZM60.1139 67.3387L56.7257 57.8622H58.4821L60.8331 64.7979L63.2118 57.8622H64.9682L61.5799 67.3387H60.1139ZM66.6609 67.3387V57.8622H72.5108V59.2493H68.2652V61.7489H72.0959V63.1224H68.2652V65.9653H72.5108V67.3387H66.6609ZM74.5881 57.8622H76.1923V65.9653H80.4381V67.3387H74.5881V57.8622ZM92.7592 60.8013H91.2103C90.9706 59.6841 90.3298 59.1256 89.2879 59.1256C88.6242 59.1256 88.131 59.3591 87.8082 59.8261C87.4856 60.284 87.3242 61.0073 87.3242 61.9961V63.2047C87.3242 65.1184 87.9788 66.0753 89.2879 66.0753C89.832 66.0753 90.2561 65.9424 90.5603 65.6769C90.8646 65.4022 91.0812 64.9765 91.2103 64.3996H92.7454C92.4412 66.4415 91.2887 67.4624 89.2879 67.4624C88.1539 67.4624 87.2735 67.1052 86.6466 66.3911C86.0288 65.6769 85.7199 64.6148 85.7199 63.2047V61.9961C85.7199 60.5861 86.0288 59.524 86.6466 58.8098C87.2735 58.0955 88.1539 57.7385 89.2879 57.7385C90.2561 57.7385 91.0352 57.9995 91.6252 58.5213C92.2244 59.0342 92.6025 59.7941 92.7592 60.8013ZM101.486 61.9961V63.2047C101.486 64.6148 101.172 65.6769 100.545 66.3911C99.9184 67.1052 99.0379 67.4624 97.904 67.4624C96.77 67.4624 95.8895 67.1052 95.2625 66.3911C94.6448 65.6769 94.3359 64.6148 94.3359 63.2047V61.9961C94.3359 60.5861 94.6448 59.524 95.2625 58.8098C95.8895 58.0955 96.77 57.7385 97.904 57.7385C99.0379 57.7385 99.9184 58.0955 100.545 58.8098C101.172 59.524 101.486 60.5861 101.486 61.9961ZM95.9402 61.9961V63.2047C95.9402 64.1936 96.1014 64.9215 96.4242 65.3885C96.7469 65.8463 97.2402 66.0753 97.904 66.0753C98.5678 66.0753 99.0611 65.8463 99.3837 65.3885C99.7157 64.9215 99.8816 64.1936 99.8816 63.2047V61.9961C99.8816 61.0073 99.7157 60.284 99.3837 59.8261C99.0611 59.3591 98.5678 59.1256 97.904 59.1256C97.2402 59.1256 96.7469 59.3591 96.4242 59.8261C96.1014 60.284 95.9402 61.0073 95.9402 61.9961ZM103.758 57.8622H105.279L108.031 63.3558L110.783 57.8622H112.318V67.3387H110.769V60.9935L108.584 65.512H107.45L105.307 61.0348V67.3387H103.758V57.8622ZM118.23 63.8778H116.585V67.3387H114.98V57.8622H118.23C119.346 57.8622 120.208 58.1231 120.816 58.645C121.434 59.1577 121.743 59.8948 121.743 60.8563C121.743 61.8176 121.434 62.5638 120.816 63.0948C120.199 63.6168 119.337 63.8778 118.23 63.8778ZM116.585 59.2493V62.5043H118.064C119.447 62.5043 120.139 61.9549 120.139 60.8563C120.139 59.7849 119.447 59.2493 118.064 59.2493H116.585ZM124.357 65.3747L123.707 67.3387H121.992L125.312 57.8622H126.833L130.152 67.3387H128.45L127.8 65.3747H124.357ZM127.344 64.0013L126.072 60.1695L124.8 64.0013H127.344ZM137.104 64.3859V57.8622H138.653V67.3387H137.229L133.343 60.8973V67.3387H131.794V57.8622H133.177L137.104 64.3859ZM143.403 63.3833L140.429 57.8622H142.297L144.205 61.6527L146.127 57.8622H147.98L145.007 63.3833V67.3387H143.403V63.3833Z" fill="#36454F"/>
</g>
<defs>
<clipPath id="clip0_162_3174">
<rect width="180" height="72" fill="white"/>
</clipPath>
</defs>
</svg>
