<svg width="25" height="24" viewBox="0 0 25 24" fill="none" xmlns="http://www.w3.org/2000/svg">
<g clip-path="url(#clip0_247_5921)">
<path d="M7.5 21.0001V24.0001H3.5V21.0001H7.5ZM17.5 21.0001V24.0001H21.5V21.0001H17.5ZM23.721 11.0001C23.533 10.2821 23.321 9.57112 23.062 8.86912L20.918 2.97512C20.7068 2.39713 20.3234 1.89785 19.8194 1.54467C19.3155 1.19149 18.7154 1.00142 18.1 1.00012H6.9C6.28463 1.00142 5.68448 1.19149 5.18056 1.54467C4.67663 1.89785 4.29319 2.39713 4.082 2.97512L1.938 8.86912C1.683 9.57112 1.467 10.2821 1.279 11.0001H23.721ZM24.5 17.0321V19.0001H0.5V17.0321C0.501136 15.6808 0.616884 14.3319 0.846 13.0001H24.154C24.3831 14.3319 24.4989 15.6808 24.5 17.0321ZM5.5 15.0001C5.23478 15.0001 4.98043 15.1055 4.79289 15.293C4.60536 15.4806 4.5 15.7349 4.5 16.0001C4.5 16.2653 4.60536 16.5197 4.79289 16.7072C4.98043 16.8948 5.23478 17.0001 5.5 17.0001C5.76522 17.0001 6.01957 16.8948 6.20711 16.7072C6.39464 16.5197 6.5 16.2653 6.5 16.0001C6.5 15.7349 6.39464 15.4806 6.20711 15.293C6.01957 15.1055 5.76522 15.0001 5.5 15.0001ZM19.5 15.0001C19.2348 15.0001 18.9804 15.1055 18.7929 15.293C18.6054 15.4806 18.5 15.7349 18.5 16.0001C18.5 16.2653 18.6054 16.5197 18.7929 16.7072C18.9804 16.8948 19.2348 17.0001 19.5 17.0001C19.7652 17.0001 20.0196 16.8948 20.2071 16.7072C20.3946 16.5197 20.5 16.2653 20.5 16.0001C20.5 15.7349 20.3946 15.4806 20.2071 15.293C20.0196 15.1055 19.7652 15.0001 19.5 15.0001Z" fill="#36454F"/>
</g>
<defs>
<clipPath id="clip0_247_5921">
<rect width="24" height="24" fill="white" transform="translate(0.5)"/>
</clipPath>
</defs>
</svg>
