<svg width="24" height="24" viewBox="0 0 24 24" fill="none" xmlns="http://www.w3.org/2000/svg">
<mask id="path-1-inside-1_265_759" fill="white">
<path d="M5.00024 9H19.0002L12.7072 15.293C12.5197 15.4805 12.2654 15.5858 12.0002 15.5858C11.7351 15.5858 11.4808 15.4805 11.2932 15.293L5.00024 9Z"/>
</mask>
<path d="M5.00024 9H19.0002L12.7072 15.293C12.5197 15.4805 12.2654 15.5858 12.0002 15.5858C11.7351 15.5858 11.4808 15.4805 11.2932 15.293L5.00024 9Z" fill="#374957"/>
<path d="M5.00024 9V-12.3333H-46.503L-10.0847 24.0849L5.00024 9ZM19.0002 9L34.0852 24.0849L70.5035 -12.3333H19.0002V9ZM12.7072 15.293L27.7899 30.3802L27.7922 30.3779L12.7072 15.293ZM11.2932 15.293L-3.7917 30.3779L-3.78942 30.3802L11.2932 15.293ZM5.00024 30.3333H19.0002V-12.3333H5.00024V30.3333ZM3.9153 -6.08494L-2.3777 0.208055L27.7922 30.3779L34.0852 24.0849L3.9153 -6.08494ZM-2.37542 0.205777C1.43763 -3.60612 6.60856 -5.74755 12.0002 -5.74755V36.9191C17.9223 36.9191 23.6018 34.5671 27.7899 30.3802L-2.37542 0.205777ZM12.0002 -5.74755C17.3919 -5.74755 22.5629 -3.60612 26.3759 0.205777L-3.78942 30.3802C0.398686 34.5671 6.07823 36.9191 12.0002 36.9191V-5.74755ZM26.3782 0.208055L20.0852 -6.08494L-10.0847 24.0849L-3.7917 30.3779L26.3782 0.208055Z" fill="white" mask="url(#path-1-inside-1_265_759)"/>
</svg>
