<svg width="90" height="90" viewBox="0 0 90 90" fill="none" xmlns="http://www.w3.org/2000/svg">
<g clip-path="url(#clip0_162_3239)">
<path fill-rule="evenodd" clip-rule="evenodd" d="M45 0C69.8528 0 90 20.1472 90 45C90 69.8528 69.8528 90 45 90C20.1472 90 0 69.8528 0 45C0 20.1472 20.1472 0 45 0ZM42.0583 40.3024C42.0986 40.304 42.1353 40.3091 42.1722 40.3109C42.5373 40.3097 42.8896 40.1758 43.1634 39.9343L53.0044 31.2987C53.3019 31.0353 53.483 30.6647 53.5081 30.2681C53.5333 29.8715 53.4004 29.4811 53.1386 29.1822C52.8768 28.8832 52.5072 28.7001 52.1108 28.6727C51.7143 28.6454 51.3232 28.7761 51.0228 29.0363L42.3192 36.6711L39.1032 32.9516C38.9741 32.8021 38.8168 32.6795 38.6403 32.5908C38.4638 32.502 38.2715 32.449 38.0745 32.4345C37.8774 32.4201 37.6795 32.4447 37.4919 32.5068C37.3044 32.5688 37.1309 32.6673 36.9814 32.7964C36.8319 32.9255 36.7093 33.0828 36.6205 33.2594C36.5318 33.4359 36.4787 33.6281 36.4643 33.8252C36.4499 34.0222 36.4744 34.2201 36.5365 34.4077C36.5986 34.5952 36.697 34.7687 36.8262 34.9182L41.0344 39.7863C41.294 40.087 41.6622 40.2726 42.0583 40.3024ZM44.9893 23.4603C42.8087 23.4601 40.677 24.1065 38.8638 25.3178C37.0506 26.5292 35.6374 28.251 34.8027 30.2655C33.9681 32.2801 33.7497 34.4969 34.1749 36.6356C34.6002 38.7743 35.6502 40.7389 37.1921 42.2808C38.7339 43.8228 40.6984 44.8729 42.8371 45.2984C44.9758 45.7239 47.1926 45.5056 49.2072 44.6711C51.2218 43.8367 52.9437 42.4235 54.1552 40.6104C55.3667 38.7973 56.0133 36.6657 56.0132 34.4851C56.0095 31.5625 54.8468 28.7606 52.7803 26.6939C50.7137 24.6271 47.9119 23.4643 44.9893 23.4603ZM44.9893 48.517C47.7646 48.5176 50.4778 47.6951 52.7858 46.1536C55.0937 44.6121 56.8926 42.4208 57.9551 39.8568C59.0176 37.2929 59.2958 34.4715 58.7547 31.7494C58.2136 29.0272 56.8774 26.5267 54.9151 24.5641C52.9529 22.6014 50.4526 21.2647 47.7306 20.723C45.0086 20.1814 42.1871 20.4591 39.623 21.521C37.0588 22.583 34.8671 24.3815 33.3252 26.6891C31.7832 28.9967 30.9602 31.7097 30.9602 34.4851C30.9649 38.2047 32.4444 41.7706 35.0742 44.401C37.7041 47.0314 41.2697 48.5116 44.9893 48.517ZM70.0124 41.0112L66.6766 37.8109V43.6203L70.0124 41.0112ZM23.3009 37.8853L20.0062 41.0024L23.3009 43.5512V37.8853ZM27.7494 16.4355C27.3663 16.4378 26.9997 16.5915 26.7297 16.8631C26.4596 17.1347 26.308 17.5022 26.3079 17.8852V45.8552L43.8344 59.3448H46.5398L63.6706 45.9693V17.8852C63.6736 17.5051 63.526 17.1393 63.2601 16.8676C62.9942 16.596 62.6316 16.4406 62.2515 16.4355H27.7494ZM39.7427 59.9922L22.1133 73.5645H67.9412L50.5879 60.0068L47.9849 62.0372C47.7201 62.2426 47.3942 62.3534 47.0591 62.3519H43.3239C42.9928 62.3534 42.6704 62.2452 42.4072 62.0443L39.7427 59.9922ZM19.1971 44.1791V72.0144L37.2772 58.0925L19.1971 44.1791ZM70.8029 71.9789V44.2055L53.0285 58.0922L70.8029 71.9789Z" fill="#36454F"/>
</g>
<defs>
<clipPath id="clip0_162_3239">
<rect width="90" height="90" fill="white"/>
</clipPath>
</defs>
</svg>
