<svg width="24" height="24" viewBox="0 0 24 24" fill="none" xmlns="http://www.w3.org/2000/svg">
<g clip-path="url(#clip0_162_3316)">
<path d="M23.8209 11.181C22.9429 9.261 19.4999 3 11.9999 3C4.49987 3 1.05687 9.261 0.178871 11.181C0.0610095 11.4383 0 11.718 0 12.001C0 12.284 0.0610095 12.5637 0.178871 12.821C1.05687 14.739 4.49987 21 11.9999 21C19.4999 21 22.9429 14.739 23.8209 12.819C23.9385 12.562 23.9994 12.2827 23.9994 12C23.9994 11.7173 23.9385 11.438 23.8209 11.181ZM11.9999 19C5.69287 19 2.74987 13.634 1.99987 12.011C2.74987 10.366 5.69287 5 11.9999 5C18.2919 5 21.2359 10.343 21.9999 12C21.2359 13.657 18.2919 19 11.9999 19Z" fill="#374957"/>
<path d="M11.9999 7.00037C11.011 7.00037 10.0443 7.29361 9.22203 7.84302C8.39978 8.39243 7.75892 9.17332 7.38048 10.0869C7.00204 11.0006 6.90303 12.0059 7.09595 12.9758C7.28888 13.9457 7.76508 14.8366 8.46435 15.5359C9.16361 16.2352 10.0545 16.7114 11.0244 16.9043C11.9943 17.0972 12.9997 16.9982 13.9133 16.6198C14.8269 16.2413 15.6078 15.6005 16.1572 14.7782C16.7066 13.956 16.9999 12.9893 16.9999 12.0004C16.9983 10.6748 16.471 9.40392 15.5337 8.46659C14.5963 7.52925 13.3255 7.00195 11.9999 7.00037ZM11.9999 15.0004C11.4065 15.0004 10.8265 14.8244 10.3332 14.4948C9.83982 14.1651 9.4553 13.6966 9.22824 13.1484C9.00118 12.6002 8.94177 11.997 9.05752 11.4151C9.17328 10.8332 9.459 10.2986 9.87856 9.87905C10.2981 9.45949 10.8327 9.17377 11.4146 9.05801C11.9966 8.94225 12.5998 9.00166 13.1479 9.22873C13.6961 9.45579 14.1646 9.84031 14.4943 10.3337C14.8239 10.827 14.9999 11.407 14.9999 12.0004C14.9999 12.796 14.6838 13.5591 14.1212 14.1217C13.5586 14.6843 12.7955 15.0004 11.9999 15.0004Z" fill="#374957"/>
</g>
<defs>
<clipPath id="clip0_162_3316">
<rect width="24" height="24" fill="white"/>
</clipPath>
</defs>
</svg>
