<svg width="20" height="20" viewBox="0 0 20 20" fill="none" xmlns="http://www.w3.org/2000/svg">
<g clip-path="url(#clip0_247_5987)">
<path d="M11.9274 19.9999C11.8334 19.9999 11.7387 19.9692 11.6595 19.906C11.4741 19.758 11.4438 19.4876 11.5919 19.3021L19.0204 9.99996L11.5919 0.697833C11.4438 0.512403 11.4741 0.242013 11.6595 0.0939277C11.8449 -0.0541189 12.1153 -0.0238846 12.2634 0.161545L19.9061 9.73184C20.0313 9.88867 20.0313 10.1113 19.9061 10.2681L12.2634 19.8384C12.1785 19.9446 12.0535 19.9999 11.9274 19.9999Z" fill="#EFA543"/>
<path d="M6.12867 19.9999C6.03465 19.9999 5.93996 19.9692 5.86082 19.906C5.67539 19.758 5.64512 19.4876 5.7932 19.3021L13.2218 9.99996L5.79316 0.697833C5.64508 0.512403 5.67535 0.242013 5.86078 0.0939277C6.04625 -0.0541189 6.31656 -0.0238846 6.46465 0.161545L14.1074 9.73184C14.2327 9.88867 14.2327 10.1113 14.1074 10.2681L6.46465 19.8384C6.37984 19.9446 6.2548 19.9999 6.12867 19.9999Z" fill="#36454F"/>
<path d="M0.429346 20.0002C0.335322 20.0002 0.240635 19.9695 0.161495 19.9063C-0.0239347 19.7582 -0.0542081 19.4878 0.0938775 19.3024L7.5225 10.0002L0.0938385 0.698077C-0.0542862 0.512648 -0.0239738 0.242257 0.161456 0.0941718C0.346885 -0.0538748 0.617236 -0.0236405 0.765361 0.161789L8.40812 9.73208C8.53335 9.88892 8.53335 10.1115 8.40812 10.2684L0.765361 19.8387C0.680517 19.9449 0.555478 20.0002 0.429346 20.0002Z" fill="#36454F"/>
</g>
<defs>
<clipPath id="clip0_247_5987">
<rect width="20" height="20" fill="white"/>
</clipPath>
</defs>
</svg>
