<svg width="178" height="6" viewBox="0 0 178 6" fill="none" xmlns="http://www.w3.org/2000/svg">
<path d="M0.333333 3C0.333333 4.47276 1.52724 5.66667 3 5.66667C4.47276 5.66667 5.66667 4.47276 5.66667 3C5.66667 1.52724 4.47276 0.333333 3 0.333333C1.52724 0.333333 0.333333 1.52724 0.333333 3ZM172.333 3.00002C172.333 4.47278 173.527 5.66669 175 5.66669C176.473 5.66669 177.667 4.47278 177.667 3.00002C177.667 1.52726 176.473 0.333354 175 0.333353C173.527 0.333353 172.333 1.52726 172.333 3.00002ZM3 3.5L175 3.50002L175 2.50002L3 2.5L3 3.5Z" fill="#898F93"/>
</svg>
