<svg width="20" height="20" viewBox="0 0 20 20" fill="none" xmlns="http://www.w3.org/2000/svg">
<path d="M7.2925 1.25C7.12674 1.25 6.96777 1.31585 6.85056 1.43306C6.73335 1.55027 6.6675 1.70924 6.6675 1.875C6.6675 2.04076 6.73335 2.19973 6.85056 2.31694C6.96777 2.43415 7.12674 2.5 7.2925 2.5H7.5V3.75H6.25C5.58696 3.75 4.95107 4.01339 4.48223 4.48223C4.01339 4.95107 3.75 5.58696 3.75 6.25V15C3.75 15.663 4.01339 16.2989 4.48223 16.7678C4.95107 17.2366 5.58696 17.5 6.25 17.5V18.125C6.25 18.2908 6.31585 18.4497 6.43306 18.5669C6.55027 18.6842 6.70924 18.75 6.875 18.75C7.04076 18.75 7.19973 18.6842 7.31694 18.5669C7.43415 18.4497 7.5 18.2908 7.5 18.125V17.5H12.5V18.125C12.5 18.2908 12.5658 18.4497 12.6831 18.5669C12.8003 18.6842 12.9592 18.75 13.125 18.75C13.2908 18.75 13.4497 18.6842 13.5669 18.5669C13.6842 18.4497 13.75 18.2908 13.75 18.125V17.5C14.413 17.5 15.0489 17.2366 15.5178 16.7678C15.9866 16.2989 16.25 15.663 16.25 15V6.25C16.25 5.58696 15.9866 4.95107 15.5178 4.48223C15.0489 4.01339 14.413 3.75 13.75 3.75H12.5V2.5H12.7087C12.8745 2.5 13.0335 2.43415 13.1507 2.31694C13.2679 2.19973 13.3337 2.04076 13.3337 1.875C13.3337 1.70924 13.2679 1.55027 13.1507 1.43306C13.0335 1.31585 12.8745 1.25 12.7087 1.25H7.2925ZM8.75 3.75V2.5H11.25V3.75H8.75ZM6.25 8.125C6.25 7.95924 6.31585 7.80027 6.43306 7.68306C6.55027 7.56585 6.70924 7.5 6.875 7.5H13.125C13.2908 7.5 13.4497 7.56585 13.5669 7.68306C13.6842 7.80027 13.75 7.95924 13.75 8.125C13.75 8.29076 13.6842 8.44973 13.5669 8.56694C13.4497 8.68415 13.2908 8.75 13.125 8.75H6.875C6.70924 8.75 6.55027 8.68415 6.43306 8.56694C6.31585 8.44973 6.25 8.29076 6.25 8.125Z" fill="#898F93"/>
</svg>
