<svg width="24" height="24" viewBox="0 0 24 24" fill="none" xmlns="http://www.w3.org/2000/svg">
<path d="M7.54594 13.6688L6.989 15.7479L4.95341 15.791C4.34506 14.6627 4 13.3717 4 11.9998C4 10.6733 4.32263 9.42226 4.8945 8.32074H4.89494L6.70719 8.65299L7.50106 10.4543C7.33491 10.9388 7.24435 11.4587 7.24435 11.9998C7.24441 12.5871 7.35078 13.1497 7.54594 13.6688Z" fill="#FBBB00"/>
<path d="M19.8603 10.5055C19.9521 10.9894 20 11.4892 20 12C20 12.5727 19.9398 13.1314 19.8251 13.6703C19.4357 15.5041 18.4181 17.1054 17.0084 18.2386L17.008 18.2382L14.7253 18.1217L14.4023 16.105C15.3377 15.5565 16.0687 14.698 16.4537 13.6703H12.1759V10.5055H16.5161H19.8603Z" fill="#518EF8"/>
<path d="M17.0079 18.2382L17.0083 18.2387C15.6373 19.3406 13.8958 20 12 20C8.95337 20 6.30459 18.2972 4.95337 15.7912L7.5459 13.6691C8.2215 15.4721 9.96084 16.7556 12 16.7556C12.8764 16.7556 13.6976 16.5187 14.4022 16.1051L17.0079 18.2382Z" fill="#28B446"/>
<path d="M17.1064 5.84174L14.5148 7.96347C13.7855 7.50766 12.9235 7.24435 12 7.24435C9.91475 7.24435 8.14288 8.58675 7.50113 10.4544L4.89497 8.32084H4.89453C6.22597 5.75383 8.90816 4 12 4C13.9411 4 15.7209 4.69143 17.1064 5.84174Z" fill="#F14336"/>
</svg>
