<svg width="14" height="19" viewBox="0 0 14 19" fill="none" xmlns="http://www.w3.org/2000/svg">
<path d="M6.16683 13.9484C4.48576 13.7345 2.94921 12.8885 1.86949 11.5824C0.789765 10.2763 0.247896 8.60803 0.354013 6.91673C0.460131 5.22542 1.20627 3.63799 2.44078 2.47707C3.6753 1.31614 5.30554 0.668851 7.00016 0.66675C8.69686 0.665486 10.3302 1.3112 11.5674 2.47231C12.8046 3.63343 13.5525 5.22258 13.6587 6.91595C13.765 8.60932 13.2215 10.2795 12.1392 11.5861C11.0569 12.8928 9.51705 13.7376 7.8335 13.9484V15.6767C11.1218 15.7534 13.6668 16.2792 13.6668 16.9167C13.6668 17.6067 10.6818 18.1667 7.00016 18.1667C3.3185 18.1667 0.333496 17.6067 0.333496 16.9167C0.333496 16.2792 2.8785 15.7534 6.16683 15.6767V13.9484ZM7.00016 12.3334C8.32624 12.3334 9.59801 11.8066 10.5357 10.8689C11.4734 9.93127 12.0002 8.6595 12.0002 7.33342C12.0002 6.00733 11.4734 4.73556 10.5357 3.79788C9.59801 2.8602 8.32624 2.33342 7.00016 2.33342C5.67408 2.33342 4.40231 2.8602 3.46463 3.79788C2.52695 4.73556 2.00016 6.00733 2.00016 7.33342C2.00016 8.6595 2.52695 9.93127 3.46463 10.8689C4.40231 11.8066 5.67408 12.3334 7.00016 12.3334ZM7.00016 9.00008C6.55814 9.00008 6.13421 8.82449 5.82165 8.51193C5.50909 8.19937 5.3335 7.77544 5.3335 7.33342C5.3335 6.89139 5.50909 6.46747 5.82165 6.15491C6.13421 5.84234 6.55814 5.66675 7.00016 5.66675C7.44219 5.66675 7.86611 5.84234 8.17867 6.15491C8.49123 6.46747 8.66683 6.89139 8.66683 7.33342C8.66683 7.77544 8.49123 8.19937 8.17867 8.51193C7.86611 8.82449 7.44219 9.00008 7.00016 9.00008Z" fill="#A3A3A3"/>
</svg>
