<svg width="15" height="10" viewBox="0 0 15 10" fill="none" xmlns="http://www.w3.org/2000/svg">
<path d="M9.73706 4.176C9.20106 4.176 8.74906 3.996 8.38106 3.636C8.02106 3.276 7.84106 2.836 7.84106 2.316C7.84106 1.796 8.02106 1.356 8.38106 0.995999C8.74106 0.636 9.19306 0.456 9.73706 0.456C10.2811 0.456 10.7331 0.636 11.0931 0.995999C11.4531 1.356 11.6331 1.796 11.6331 2.316C11.6331 2.836 11.4531 3.276 11.0931 3.636C10.7411 3.996 10.2891 4.176 9.73706 4.176ZM5.90906 0.599999H7.02506V9H6.12506L1.80506 2.724V9H0.689063V0.599999H1.58906L5.90906 6.864V0.599999ZM9.05306 3C9.22906 3.184 9.45706 3.276 9.73706 3.276C10.0171 3.276 10.2451 3.184 10.4211 3C10.5971 2.816 10.6851 2.588 10.6851 2.316C10.6851 2.044 10.5971 1.816 10.4211 1.632C10.2451 1.448 10.0171 1.356 9.73706 1.356C9.45706 1.356 9.22906 1.448 9.05306 1.632C8.87706 1.816 8.78906 2.044 8.78906 2.316C8.78906 2.588 8.87706 2.816 9.05306 3ZM7.98506 5.94V4.944H11.4891V5.94H7.98506ZM13.534 4.416C13.318 4.416 13.134 4.34 12.982 4.188C12.83 4.036 12.754 3.852 12.754 3.636C12.754 3.42 12.83 3.236 12.982 3.084C13.134 2.932 13.318 2.856 13.534 2.856C13.758 2.856 13.942 2.932 14.086 3.084C14.238 3.236 14.314 3.42 14.314 3.636C14.314 3.852 14.238 4.036 14.086 4.188C13.942 4.34 13.758 4.416 13.534 4.416ZM13.534 9.132C13.318 9.132 13.134 9.056 12.982 8.904C12.83 8.752 12.754 8.568 12.754 8.352C12.754 8.136 12.83 7.952 12.982 7.8C13.134 7.648 13.318 7.572 13.534 7.572C13.758 7.572 13.942 7.648 14.086 7.8C14.238 7.952 14.314 8.136 14.314 8.352C14.314 8.568 14.238 8.752 14.086 8.904C13.942 9.056 13.758 9.132 13.534 9.132Z" fill="#8896A1"/>
</svg>
