<svg width="107" height="20" viewBox="0 0 107 20" fill="none" xmlns="http://www.w3.org/2000/svg">
<path d="M96.6667 14.5996L100.125 16.6913C100.758 17.0746 101.533 16.508 101.367 15.7913L100.45 11.858L103.508 9.20798C104.067 8.72464 103.767 7.80798 103.033 7.74964L99.0084 7.40798L97.4334 3.69131C97.15 3.01631 96.1834 3.01631 95.9 3.69131L94.325 7.39964L90.3 7.74131C89.5667 7.79964 89.2667 8.71631 89.825 9.19964L92.8834 11.8496L91.9667 15.783C91.8 16.4996 92.575 17.0663 93.2084 16.683L96.6667 14.5996Z" fill="#EFA543"/>
<path d="M74.9999 14.5996L78.4583 16.6913C79.0916 17.0746 79.8666 16.508 79.6999 15.7913L78.7833 11.858L81.8416 9.20798C82.3999 8.72464 82.0999 7.80798 81.3666 7.74964L77.3416 7.40798L75.7666 3.69131C75.4833 3.01631 74.5166 3.01631 74.2333 3.69131L72.6583 7.39964L68.6333 7.74131C67.8999 7.79964 67.5999 8.71631 68.1583 9.19964L71.2166 11.8496L70.2999 15.783C70.1333 16.4996 70.9083 17.0663 71.5416 16.683L74.9999 14.5996Z" fill="#EFA543"/>
<path d="M53.3332 14.5996L56.7915 16.6913C57.4249 17.0746 58.1999 16.508 58.0332 15.7913L57.1165 11.858L60.1749 9.20798C60.7332 8.72464 60.4332 7.80798 59.6999 7.74964L55.6749 7.40798L54.0999 3.69131C53.8165 3.01631 52.8499 3.01631 52.5665 3.69131L50.9915 7.39964L46.9665 7.74131C46.2332 7.79964 45.9332 8.71631 46.4915 9.19964L49.5499 11.8496L48.6332 15.783C48.4665 16.4996 49.2415 17.0663 49.8749 16.683L53.3332 14.5996Z" fill="#EFA543"/>
<path d="M31.6667 14.5996L35.125 16.6913C35.7584 17.0746 36.5334 16.508 36.3667 15.7913L35.45 11.858L38.5084 9.20798C39.0667 8.72464 38.7667 7.80798 38.0334 7.74964L34.0084 7.40798L32.4334 3.69131C32.15 3.01631 31.1834 3.01631 30.9 3.69131L29.325 7.39964L25.3 7.74131C24.5667 7.79964 24.2667 8.71631 24.825 9.19964L27.8834 11.8496L26.9667 15.783C26.8 16.4996 27.575 17.0663 28.2084 16.683L31.6667 14.5996Z" fill="#EFA543"/>
<path d="M9.99994 14.5996L13.4583 16.6913C14.0916 17.0746 14.8666 16.508 14.6999 15.7913L13.7833 11.858L16.8416 9.20798C17.3999 8.72464 17.0999 7.80798 16.3666 7.74964L12.3416 7.40798L10.7666 3.69131C10.4833 3.01631 9.51661 3.01631 9.23327 3.69131L7.65827 7.39964L3.63327 7.74131C2.89994 7.79964 2.59994 8.71631 3.15827 9.19964L6.21661 11.8496L5.29994 15.783C5.13327 16.4996 5.90827 17.0663 6.5416 16.683L9.99994 14.5996Z" fill="#EFA543"/>
</svg>
