<svg width="24" height="24" viewBox="0 0 24 24" fill="none" xmlns="http://www.w3.org/2000/svg">
<path d="M11.855 17.8644L14.645 20.6444C14.845 20.8344 15.155 20.8344 15.355 20.6444L18.145 17.8644C18.465 17.5544 18.235 17.0144 17.795 17.0144L15.995 17.0144L15.995 11.0044C15.995 10.4544 15.545 10.0044 14.995 10.0044C14.445 10.0044 13.995 10.4544 13.995 11.0044L13.995 17.0144L12.205 17.0144C11.755 17.0144 11.535 17.5544 11.855 17.8644ZM8.64496 3.35442L5.85496 6.13442C5.53496 6.44442 5.76496 6.98442 6.20496 6.98442L7.99496 6.98442L7.99496 13.0044C7.99496 13.5544 8.44496 14.0044 8.99496 14.0044C9.54496 14.0044 9.99496 13.5544 9.99496 13.0044L9.99496 6.99442L11.785 6.99442C12.235 6.99442 12.455 6.45442 12.135 6.14442L9.34496 3.36442C9.15496 3.16442 8.83496 3.16442 8.64496 3.35442Z" fill="#36454F"/>
</svg>
