<svg width="25" height="24" viewBox="0 0 25 24" fill="none" xmlns="http://www.w3.org/2000/svg">
<g clip-path="url(#clip0_247_5917)">
<path d="M7.5 21V24H3.5V21H7.5ZM17.5 21V24H21.5V21H17.5ZM24.5 16V19H0.5V16C0.5 15.2044 0.81607 14.4413 1.37868 13.8787C1.94129 13.3161 2.70435 13 3.5 13H21.5C22.2956 13 23.0587 13.3161 23.6213 13.8787C24.1839 14.4413 24.5 15.2044 24.5 16ZM5.5 15C5.23478 15 4.98043 15.1054 4.79289 15.2929C4.60536 15.4804 4.5 15.7348 4.5 16C4.5 16.2652 4.60536 16.5196 4.79289 16.7071C4.98043 16.8946 5.23478 17 5.5 17C5.76522 17 6.01957 16.8946 6.20711 16.7071C6.39464 16.5196 6.5 16.2652 6.5 16C6.5 15.7348 6.39464 15.4804 6.20711 15.2929C6.01957 15.1054 5.76522 15 5.5 15ZM19.5 15C19.2348 15 18.9804 15.1054 18.7929 15.2929C18.6054 15.4804 18.5 15.7348 18.5 16C18.5 16.2652 18.6054 16.5196 18.7929 16.7071C18.9804 16.8946 19.2348 17 19.5 17C19.7652 17 20.0196 16.8946 20.2071 16.7071C20.3946 16.5196 20.5 16.2652 20.5 16C20.5 15.7348 20.3946 15.4804 20.2071 15.2929C20.0196 15.1054 19.7652 15 19.5 15ZM15.608 2L15.4 1.368C15.2672 0.969266 15.0122 0.622498 14.6711 0.376931C14.33 0.131365 13.9203 -0.000519829 13.5 1.53987e-06H11.608C11.1877 -0.000519829 10.778 0.131365 10.4369 0.376931C10.0958 0.622498 9.84081 0.969266 9.708 1.368L9.5 2H15.608ZM21.167 9L19.956 5.368C19.8233 4.96959 19.5686 4.62305 19.2279 4.37752C18.8872 4.13198 18.4779 3.9999 18.058 4H6.942C6.52173 3.99948 6.11197 4.13137 5.77091 4.37693C5.42984 4.6225 5.17481 4.96927 5.042 5.368L3.833 9H0.5V11H24.5V9H21.167Z" fill="#36454F"/>
</g>
<defs>
<clipPath id="clip0_247_5917">
<rect width="24" height="24" fill="white" transform="translate(0.5)"/>
</clipPath>
</defs>
</svg>
