<svg width="25" height="24" viewBox="0 0 25 24" fill="none" xmlns="http://www.w3.org/2000/svg">
<g clip-path="url(#clip0_247_5913)">
<path d="M21.332 18.555L21.5 18.3V8.861C19.472 12.658 16.125 16 12.5 16C8.875 16 5.528 12.658 3.5 8.861V18.3L3.668 18.552C4.07985 19.1031 4.58072 19.5817 5.15 19.968L3.5 24H5.662L6.908 20.954C8.68025 21.6834 10.5839 22.0395 12.5 22C14.4161 22.0395 16.3197 21.6834 18.092 20.954L19.338 24H21.5L19.85 19.968C20.419 19.5826 20.9199 19.105 21.332 18.555ZM12.5 20C12.3022 20 12.1089 19.9414 11.9444 19.8315C11.78 19.7216 11.6518 19.5654 11.5761 19.3827C11.5004 19.2 11.4806 18.9989 11.5192 18.8049C11.5578 18.6109 11.653 18.4327 11.7929 18.2929C11.9327 18.153 12.1109 18.0578 12.3049 18.0192C12.4989 17.9806 12.7 18.0004 12.8827 18.0761C13.0654 18.1518 13.2216 18.28 13.3315 18.4444C13.4414 18.6089 13.5 18.8022 13.5 19C13.5 19.2652 13.3946 19.5196 13.2071 19.7071C13.0196 19.8946 12.7652 20 12.5 20ZM12.5 14C16.279 14 20.581 8.05 21.363 3.407C21.2315 2.98272 21.0065 2.59336 20.7044 2.26763C20.4024 1.94191 20.0312 1.68813 19.618 1.525C17.3576 0.58883 14.9456 0.0720694 12.5 0C10.0544 0.0719582 7.6424 0.588724 5.382 1.525C4.96884 1.68813 4.59757 1.94191 4.29556 2.26763C3.99354 2.59336 3.76849 2.98272 3.637 3.407C4.419 8.05 8.721 14 12.5 14ZM9.5 3H15.5V5H9.5V3Z" fill="#36454F"/>
</g>
<defs>
<clipPath id="clip0_247_5913">
<rect width="24" height="24" fill="white" transform="translate(0.5)"/>
</clipPath>
</defs>
</svg>
